<svg width="138" height="142" viewBox="0 0 138 142" fill="none" xmlns="http://www.w3.org/2000/svg">
<rect x="6" y="10" width="124" height="124" rx="62" fill="#E0EBF5"/>
<path d="M59.7747 100.96L83.3197 69.0474" stroke="#275AD6" stroke-width="2" stroke-miterlimit="10" stroke-linecap="round" stroke-linejoin="round"/>
<path d="M54.6355 103.951C57.8162 103.951 60.3948 101.408 60.3948 98.2704C60.3948 95.1328 57.8162 92.5894 54.6355 92.5894C51.4547 92.5894 48.8762 95.1328 48.8762 98.2704C48.8762 101.408 51.4547 103.951 54.6355 103.951Z" stroke="#275AD6" stroke-width="2" stroke-miterlimit="10" stroke-linecap="round" stroke-linejoin="round"/>
<path d="M77.8705 100.96L54.3254 69.0474" stroke="#275AD6" stroke-width="2" stroke-miterlimit="10" stroke-linecap="round" stroke-linejoin="round"/>
<path d="M83.0096 103.951C86.1904 103.951 88.7689 101.408 88.7689 98.2704C88.7689 95.1328 86.1904 92.5894 83.0096 92.5894C79.8289 92.5894 77.2504 95.1328 77.2504 98.2704C77.2504 101.408 79.8289 103.951 83.0096 103.951Z" stroke="#275AD6" stroke-width="2" stroke-miterlimit="10" stroke-linecap="round" stroke-linejoin="round"/>
<path d="M79.2636 69.0474H58.5272" stroke="#275AD6" stroke-width="2" stroke-miterlimit="10" stroke-linecap="round" stroke-linejoin="round"/>
<path d="M54.044 65.6505H39.494V37.4736H98.2969V65.6505H83.514" stroke="#275AD6" stroke-width="2" stroke-miterlimit="10" stroke-linecap="round" stroke-linejoin="round"/>
<path d="M73.482 46.9201C72.3241 45.8369 71.0468 45.1812 68.8955 45.1812C66.0569 45.1812 64.309 46.2864 64.309 48.1433C64.309 50.258 66.4379 51.5622 68.8955 51.5622" stroke="#275AD6" stroke-width="2" stroke-miterlimit="10" stroke-linecap="round" stroke-linejoin="round"/>
<path d="M68.8955 42.8674V60.2569" stroke="#275AD6" stroke-width="2" stroke-miterlimit="10" stroke-linecap="round" stroke-linejoin="round"/>
<path d="M64.309 56.1968C65.4668 57.28 66.7441 57.9357 68.8955 57.9357C71.734 57.9357 73.482 56.8305 73.482 54.9736C73.482 52.8589 71.3531 51.5547 68.8955 51.5547" stroke="#275AD6" stroke-width="2" stroke-miterlimit="10" stroke-linecap="round" stroke-linejoin="round"/>
</svg>
