<svg width="138" height="142" viewBox="0 0 138 142" fill="none" xmlns="http://www.w3.org/2000/svg">
<rect x="6" y="10" width="124" height="124" rx="62" fill="#E0EBF5"/>
<path d="M75.04 54.5801H102V96.9701H26.46V54.5801H53.42" stroke="#2659D9" stroke-width="2.5" stroke-linecap="round" stroke-linejoin="round"/>
<path d="M58.99 79.3399C58.99 81.3099 60.59 82.8999 62.55 82.8999H65.91C67.88 82.8999 69.47 81.2999 69.47 79.3399C69.47 77.3799 67.88 75.7799 65.91 75.7799H62.55C60.58 75.7799 58.99 74.1899 58.99 72.2199C58.99 70.2499 60.59 68.6499 62.55 68.6499H65.91C67.88 68.6499 69.47 70.2499 69.47 72.2199" stroke="#2659D9" stroke-width="2.5" stroke-linecap="round" stroke-linejoin="round"/>
<path d="M64.23 68.65V65.54" stroke="#2659D9" stroke-width="2.5" stroke-linecap="round" stroke-linejoin="round"/>
<path d="M64.23 86.0099V82.8999" stroke="#2659D9" stroke-width="2.5" stroke-linecap="round" stroke-linejoin="round"/>
<path d="M53.4199 60.52H40.2999C40.2999 64.86 36.7799 68.38 32.4399 68.38V83.18C36.7799 83.18 40.2999 86.7 40.2999 91.04H53.4199" stroke="#2659D9" stroke-width="2.5" stroke-linecap="round" stroke-linejoin="round"/>
<path d="M75.04 91.04H88.16C88.16 86.7 91.68 83.18 96.02 83.18V68.38C91.68 68.38 88.16 64.86 88.16 60.52H75.04" stroke="#2659D9" stroke-width="2.5" stroke-linecap="round" stroke-linejoin="round"/>
<path d="M96.03 60.52H96.02" stroke="#2659D9" stroke-width="2.5" stroke-linecap="round" stroke-linejoin="round"/>
<circle cx="32.4299" cy="60.52" r="1.25" fill="#2659D9"/>
<path d="M32.4099 91.04H32.4299" stroke="#2659D9" stroke-width="2.5" stroke-linecap="round" stroke-linejoin="round"/>
<circle cx="96.02" cy="91.04" r="1.25" fill="#2659D9"/>
<path d="M44.6701 75.78H41.5901" stroke="#2659D9" stroke-width="2.5" stroke-linecap="round" stroke-linejoin="round"/>
<path d="M86.86 75.78H83.78" stroke="#2659D9" stroke-width="2.5" stroke-linecap="round" stroke-linejoin="round"/>
<path d="M58.19 49.8101H31.23V54.5801" stroke="#2659D9" stroke-width="2.5" stroke-linecap="round" stroke-linejoin="round"/>
<path d="M102 92.2001H106.77V49.8101H79.8101" stroke="#2659D9" stroke-width="2.5" stroke-linecap="round" stroke-linejoin="round"/>
<path d="M106.77 87.43H111.54V45.04H84.58L75.04 54.58V96.97H53.42V54.58L62.97 45.03L62.98 45.04H36V49.81" stroke="#2659D9" stroke-width="2.5" stroke-linecap="round" stroke-linejoin="round"/>
<path d="M62.97 45.03H84.58" stroke="#2659D9" stroke-width="2.5" stroke-linecap="round" stroke-linejoin="round"/>
</svg>
