<svg preserveAspectRatio="none" overflow="visible" style="display: block;" width="14" height="14" viewBox="0 0 14 14" fill="none" xmlns="http://www.w3.org/2000/svg">
<g id="Icon Secure">
<path id="Element" fill-rule="evenodd" clip-rule="evenodd" d="M10.5 4.66667H9.91667V3.5C9.91667 1.89 8.61 0.583333 7 0.583333C5.39 0.583333 4.08333 1.89 4.08333 3.5V4.66667H3.5C2.85833 4.66667 2.33333 5.19167 2.33333 5.83333V11.6667C2.33333 12.3083 2.85833 12.8333 3.5 12.8333H10.5C11.1417 12.8333 11.6667 12.3083 11.6667 11.6667V5.83333C11.6667 5.19167 11.1417 4.66667 10.5 4.66667ZM5.25 4.66667V3.5C5.25 2.53167 6.03167 1.75 7 1.75C7.96833 1.75 8.75 2.53167 8.75 3.5V4.66667H5.25Z" fill="#1F1F1F"/>
</g>
</svg>
