<svg preserveAspectRatio="none" overflow="visible" style="display: block;" width="20" height="20" viewBox="0 0 20 20" fill="none" xmlns="http://www.w3.org/2000/svg">
<g id="Icon New Tab">
<path id="Icon" fill-rule="evenodd" clip-rule="evenodd" d="M15.1428 10.3573H10.8567V14.6437C10.8567 15.1152 10.471 15.501 9.99949 15.501C9.52802 15.501 9.14227 15.1152 9.14227 14.6437V10.3573H4.85619C4.38472 10.3573 3.99897 9.9715 3.99897 9.5C3.99897 9.0285 4.38472 8.64272 4.85619 8.64272H9.14227V4.35633C9.14227 3.88482 9.52802 3.49905 9.99949 3.49905C10.471 3.49905 10.8567 3.88482 10.8567 4.35633V8.64272H15.1428C15.6143 8.64272 16 9.0285 16 9.5C16 9.9715 15.6143 10.3573 15.1428 10.3573Z" fill="#1F1F1F"/>
</g>
</svg>
